<?xml version="1.0" encoding="utf-8"?>
<svg width="800px" height="600px"
     xmlns="http://www.w3.org/2000/svg"
     xmlns:xhtml="http://www.w3.org/1999/xhtml"
     xmlns:xlink="http://www.w3.org/1999/xlink"
     xmlns:a="http://www.adobe.com/svg10-extensions" a:timeline="independent"
     onload="top.load(evt)">

  <defs>
	<clipPath id="effect_clip">
		<rect x="0" y="0" width="800" height="600">
			<animate id="effect" attributeName="x" attributeType="XML"
					 values="0;400"
					 begin="" end="" dur="2s" fill="freeze"/>
			<animate attributeName="y" attributeType="XML"
					 values="0;300"
					 begin="effect.begin" dur="2s" fill="freeze"/>
			<animate attributeName="width" attributeType="XML"
					 values="800;0"
					 begin="effect.begin" dur="2s" fill="freeze"/>
			<animate attributeName="height" attributeType="XML"
					 values="600;0"
					 begin="effect.begin" dur="2s" fill="freeze"/>
		</rect>
	</clipPath>
    <clipPath id="gameareaclip">
      <rect x="20" y="20" width="600" height="560"/>
    </clipPath>
    <pattern id="background_pattern" x="0" y="0" width="20" height="20" patternUnits="userSpaceOnUse">
      <rect width="20" height="20" style="fill:yellow"/>
      <circle cx="10" cy="10" r="8" style="fill:lightyellow"/>
    </pattern>
    <radialGradient id="player_color">
      <stop offset="0.0" style="stop-color:yellow;stop-opacity:1"/>
      <stop offset="0.8" style="stop-color:yellow;stop-opacity:1"/>
      <stop offset="1.0" style="stop-color:orange;stop-opacity:1"/>
    </radialGradient>
    <g id="monster" transform="scale(0.75)">
		<animateTransform type="rotate" 
			attributeName="transform" attributeType="XML" dur="1s" 
			values="5 30 30;10 30 30;5 30 30" repeatCount="indefinite"/>
	  <path
         
         id="path4873"
         d="M 4.2300938,40.923505 C 3.7402021,40.596749 0.25701535,36.477736 0.13862455,36.596184 c -0.16875668,0.168836 1.30592735,3.794892 1.75349295,4.09341 0.4175054,0.278472 1.6027509,2.098899 1.4712617,2.230452 -0.1742635,0.174344 0.6698259,-0.136527 0.4558473,-0.01417 -0.9834334,0.562223 -2.6424627,1.573688 -3.38419807,2.421793 -0.7384697,0.844371 -1.49982783,2.015907 -1.93886273,3.040812 -0.3332943,0.778063 -1.6870973,2.919337 -0.8324851,3.774361 0.072678,0.07271 3.24983448,-1.490383 3.7608359,-1.746005 0.9938566,-0.497164 -1.30722933,2.724533 0.2338005,2.33909 1.9738179,-0.493682 4.5076582,0.44335 6.389339,1.565417 1.6124272,0.961512 2.421078,1.286935 3.963822,2.830418 0.559012,0.559268 2.943662,3.10802 3.586195,3.750853 0.177729,0.177818 1.642886,-0.767939 1.74174,-0.847058 1.499472,-1.200147 8.342168,-4.431532 10.048881,-5.342214 4.877601,-2.60262 4.723031,-2.522455 9.892447,-4.461903 3.904912,-1.465031 6.43903,-2.343563 10.435829,-3.343236 1.511489,-0.378051 3.055991,-0.517922 4.55907,-0.818679 0.164331,-0.03288 1.753486,0.26231 1.753486,0 0,-0.246563 -0.496338,-0.09714 -0.701395,-0.233911 -1.612484,-1.075495 -3.793485,-2.126166 -5.488381,-3.143586 -0.836761,-0.502287 -2.024603,-0.619798 -2.956717,-0.852941 -0.660214,-0.165128 -1.04551,-0.517115 -1.608222,-0.798607 -0.03308,-0.01649 -0.818612,1.221896 -1.211542,0.248101 -0.313366,-0.776595 9.219299,-2.000557 9.862074,-2.236331 0.832713,-0.305445 -8.485781,-3.054831 -10.520929,-2.456046 -1.096495,0.322615 -2.434119,0.116955 -3.390068,0.116955 -0.05621,0 -0.624298,0.03982 -0.467601,-0.116955 0.78552,-0.785884 2.874812,-1.728995 3.855236,-3.200338 0.596585,-1.26737 2.759565,-4.0699 2.023963,-3.160207 -0.647834,0.801153 -3.78857,3.531937 -4.875524,4.184419 -2.732188,1.640091 -6.601411,3.87149 -9.776981,4.506905 -1.857198,0.371617 -4.07825,1.150097 -6.064568,0.653283 -2.63246,-0.658425 -1.524196,0.01825 -3.412572,0.623897 -2.263079,0.725837 -2.431679,0.270754 -4.123991,0.06314 -3.794063,1.113595 -7.5537388,2.916006 -10.9418142,0.656221 z"
         style="color:#000000;fill:#dfd9c9;fill-opacity:1;stroke:#000000;stroke-width:1;stroke-linecap:round;stroke-linejoin:round;stroke-miterlimit:4;stroke-opacity:1;stroke-dasharray:none;stroke-dashoffset:0;marker:none;visibility:visible;display:inline;overflow:visible;enable-background:accumulate" />
      <path
         
         id="path4937"
         d="m 32.045641,35.031673 c -0.817558,0.0117 -1.724208,0.04029 -2.39715,0.578896 -0.666347,0.53333 -1.070569,0.980367 -1.322562,1.736686 -0.75551,2.267619 3.505919,0.727191 4.463653,0.248098 2.190941,-1.095992 0.339662,-2.997326 -0.743941,-2.56368 z"
         style="color:#000000;fill:#ff0000;stroke:#000000;stroke-width:1;stroke-linecap:round;stroke-linejoin:round;stroke-miterlimit:4;stroke-opacity:1;stroke-dasharray:none;stroke-dashoffset:0;marker:none;visibility:visible;display:inline;overflow:visible;enable-background:accumulate" />
      <path
         
         id="path4939"
         d="m 13.447095,39.001241 c -0.143969,0.05971 -0.326009,0 -1.074575,0 -1.320449,0 -2.4277653,1.680026 -0.991928,2.398283 1.438277,0.719479 3.813364,-1.699206 2.066503,-2.398283 z"
         style="color:#000000;fill:#ff0000;stroke:#000000;stroke-width:1;stroke-linecap:round;stroke-linejoin:round;stroke-miterlimit:4;stroke-opacity:1;stroke-dasharray:none;stroke-dashoffset:0;marker:none;visibility:visible;display:inline;overflow:visible;enable-background:accumulate" />
      <path
         
         id="path4943"
         d="m 6.6849808,45.133862 c -0.019708,-0.375513 3.313996,-1.871268 5.1435612,-1.871268 0.105861,0 1.987279,-0.179634 1.987279,-0.116955 0,0.0615 -1.66719,1.568297 -1.753479,1.637366 -0.680078,0.54431 -1.283181,1.751599 -1.753493,2.222134 -0.207269,0.207365 -3.2398309,-1.717587 -3.6238682,-1.871277 z"
         style="color:#000000;fill:#585039;fill-opacity:1;stroke:#000000;stroke-width:1;stroke-linecap:round;stroke-linejoin:round;stroke-miterlimit:4;stroke-opacity:1;stroke-dasharray:none;stroke-dashoffset:0;marker:none;visibility:visible;display:inline;overflow:visible;enable-background:accumulate" />
      <path
         
         id="path4953"
         d="m 28.607157,-3.0723606 c -3.437068,1.0039213 -6.810509,2.34420673 -9.897599,4.1887925 -2.795887,1.5822109 -5.46493,3.5070732 -7.371513,6.1388028 C 10.133063,8.8108292 8.7835288,10.252762 7.6420252,11.828377 7.2317414,11.937263 7.4132052,11.221271 7.3388196,10.991421 7.2645692,9.6356915 7.1976756,8.2650811 7.0027292,6.9272523 6.7355388,6.4619886 6.296632,6.9990075 6.3196057,7.3512116 5.583413,10.719056 4.7930975,14.10603 4.5533562,17.555367 c -0.1314323,3.397729 0.1629581,6.998111 1.912374,9.98512 1.570414,2.234254 4.0478408,3.607336 6.4586728,4.754933 0.385482,0.03329 0.873545,0.464772 1.110547,-0.07675 1.687617,-3.670947 4.043423,-7.013107 6.875126,-9.893622 1.639407,-1.708749 2.722761,-3.925342 4.540799,-5.449351 2.430868,-2.212155 5.201988,-4.134381 8.444814,-4.952586 5.298053,-1.47665 10.877703,-2.029442 15.91876,-4.3375773 1.192887,-0.5964391 2.531108,-1.024979 3.538789,-1.9191964 C 53.555079,5.3359512 53.65993,4.7776969 54.189793,4.9280642 55.816535,4.793503 56.542981,3.0859173 57.339522,1.8996977 57.484465,1.498286 58.174291,0.90878903 57.660244,0.54592444 57.094522,0.59191186 56.649725,1.0780516 56.071146,1.1416615 53.10619,1.8813916 50.002885,2.0986858 46.96762,1.7045053 44.854017,1.7261607 42.769008,1.4524302 40.673335,1.2513061 36.574231,0.91360826 32.447302,1.1997243 28.420926,2.0212351 27.272265,2.1965395 26.067568,2.5114336 24.93579,2.5378062 24.719435,2.1056056 25.430015,1.7654097 25.562592,1.3863027 c 1.027304,-1.41356524 2.183407,-2.75175 3.398912,-4.0018055 0.113958,-0.2218578 -0.0683,-0.5182809 -0.354347,-0.4568541 z"
         style="color:#000000;fill:#dfd9c9;fill-opacity:1;fill-rule:nonzero;stroke:#000000;stroke-width:1;marker:none;visibility:visible;display:inline;overflow:visible;enable-background:accumulate" />
      <path
         
         id="path4959"
         d="m 53.446179,6.4150862 c -3.983124,2.2019116 -8.359336,3.5920318 -12.817525,4.4684728 -4.458189,0.980156 -9.255713,1.701658 -12.843886,4.772292 -2.079046,1.518498 -3.823077,3.445831 -5.253492,5.577923 -2.476965,2.939964 -5.24282,5.729686 -6.995118,9.226144 -0.558912,0.832077 -0.803904,2.039719 -1.580872,2.656717 C 13.468809,32.740387 12.80163,33.05152 12.307249,32.604932 9.6306135,31.265724 6.7785266,29.567439 5.4567832,26.759123 4.518714,24.78038 4.3461438,22.589235 3.937909,20.473973 3.039135,19.698102 1.6933006,19.716735 0.59017445,19.383376 -3.5265951,18.769666 -7.7411865,18.491753 -11.891524,18.706275 c -0.675226,-0.09278 -0.873225,0.621446 -0.52178,1.085429 0.589783,1.441889 1.527148,2.744706 2.9912526,3.385504 1.8882907,1.341933 3.5657474,3.021737 5.4504093,4.367559 1.6032064,1.72185 2.9290481,3.706713 4.81495514,5.184215 0.78248206,0.531895 1.53538776,1.556923 2.55729816,1.483419 0.8412647,-0.951978 0.7061256,-2.531652 1.5602114,-3.457867 0.5538327,0.417714 -0.2473045,1.236213 -0.2376496,1.76253 -0.7468937,2.295015 -1.4839689,5.191609 0.2789796,7.225856 0.5759527,0.594963 1.0851041,1.318955 1.679036,1.855568 0.5690015,0.296432 1.1147518,-0.270692 0.7749403,-0.821828 -0.062112,-0.673669 -0.7595153,-1.451862 -0.4546306,-2.108832 1.3111994,-0.799448 2.9926831,-0.409625 4.4630487,-0.409709 1.189258,0.146448 2.615846,0.327337 3.477495,1.210859 0.469657,0.840127 1.675742,0.748174 2.510795,0.842499 0.880603,-0.145499 1.988923,-0.211399 2.619297,-0.904524 0.143221,-0.434016 -0.426079,-0.971017 0.154989,-1.276671 2.84557,-1.548347 5.914773,-2.738745 8.97896,-3.830013 2.138242,-0.697496 4.513521,-1.571755 6.736807,-1.075092 -0.0761,0.943008 -1.263516,1.518761 -1.234729,2.52233 0.457512,0.594117 1.218293,-0.282497 1.730682,-0.429002 2.506114,-1.269092 4.514681,-3.227234 6.669657,-4.982635 0.168536,-0.1753 0.746801,-0.440679 0.485623,0.04134 -1.12112,1.987539 -2.311004,3.976328 -4.246665,5.266914 -0.551428,0.31458 -0.182176,1.048354 0.402962,0.878681 1.076673,-0.171632 2.310108,-0.09115 3.265637,-0.58476 2.965269,-2.911623 5.408574,-6.473888 6.310265,-10.578812 1.322917,-5.169762 2.809006,-10.321552 4.641652,-15.320891 0.136697,-1.1932112 0.180738,-2.4964804 -0.258311,-3.6129277 -0.07656,0.059758 -0.187547,-0.073599 -0.263484,-0.010338 z"
         style="color:#000000;fill:#473831;fill-opacity:1;fill-rule:nonzero;stroke:#000000;stroke-width:1;marker:none;visibility:visible;display:inline;overflow:visible;enable-background:accumulate" />
      <path
         
         id="path4963"
         d="m 34.783329,33.445369 c -0.328151,0.02056 -0.65756,0.03442 -0.986429,0.05654 -0.577575,0.06232 -1.140877,0.209203 -1.70053,0.359708 -1.595622,0.441593 -3.160622,0.986919 -4.711769,1.56402 -1.13991,0.430954 -2.276511,0.875253 -3.38064,1.392569 -0.299464,0.135316 -0.584498,0.29915 -0.87627,0.449628 -0.455968,0.214844 -0.94189,0.358697 -1.409505,0.546069 -0.352441,0.134854 -0.705059,0.280885 -1.022608,0.486505 -0.140859,0.08973 -0.181805,0.305793 -0.06275,0.429447 0.09542,0.100381 0.233345,0.147497 0.347048,0.223802 0.116284,0.05962 0.209446,0.17486 0.350334,0.171419 0.63295,0.04864 1.240841,0.248612 1.864875,0.357997 0.510226,0.08674 1.030854,0.06813 1.545676,0.03941 1.12134,-0.0933 2.212827,-0.383113 3.306483,-0.632353 0.133119,-0.01737 0.259748,-0.113037 0.276255,-0.252426 0.01814,-0.117053 -0.04589,-0.2171 -0.121991,-0.297563 -0.181322,-0.252028 -0.181058,-0.585936 -0.106104,-0.874848 0.148088,-0.570536 0.453564,-1.09921 0.87585,-1.511119 0.243086,-0.233388 0.494837,-0.462234 0.777644,-0.646677 0.54876,-0.34163 1.208319,-0.429896 1.843282,-0.453178 0.195672,-0.006 0.395251,-0.0027 0.584299,-0.05616 0.360679,-0.05956 0.733325,0.04395 1.038566,0.23885 0.201684,0.122111 0.367645,0.29244 0.516444,0.472868 0.118135,0.116451 0.330491,0.09699 0.425275,-0.03892 0.149646,-0.251856 0.281826,-0.519274 0.424236,-0.777326 0.135943,-0.242734 0.253509,-0.494878 0.402202,-0.729779 0.0836,-0.09621 0.140162,-0.2368 0.07508,-0.357896 -0.04518,-0.104958 -0.162175,-0.168393 -0.274988,-0.160589 z"
         style="color:#000000;fill:#d5b585;fill-opacity:1;fill-rule:nonzero;stroke:#000000;stroke-width:1;marker:none;visibility:visible;display:inline;overflow:visible;enable-background:accumulate" />
      <path
         
         id="path4965"
         d="m 9.128591,38.59174 c -0.5128157,-0.0028 -1.0417963,0.04422 -1.5151247,0.248528 -0.2213282,0.13909 -0.1051999,0.412415 -0.027392,0.595737 0.1688777,0.485356 0.1617842,1.036146 0.4201095,1.492085 0.1517736,0.20265 0.3143973,0.404745 0.3801241,0.652522 0.155829,0.277786 0.5097705,0.156329 0.7596363,0.133266 0.4528946,-0.08031 0.9191938,-0.124171 1.3552968,-0.273201 0.216611,-0.09594 0.209461,-0.368011 0.100469,-0.542736 -0.236938,-0.604725 0.07369,-1.306631 0.583587,-1.671312 0.187219,-0.09531 0.293124,-0.385456 0.09027,-0.517562 -0.217102,-0.124926 -0.493812,-0.0831 -0.737737,-0.105895 -0.469643,-0.01182 -0.9394354,-0.01436 -1.4091993,-0.01143 z"
         style="color:#000000;fill:#d5b585;fill-opacity:1;fill-rule:nonzero;stroke:#000000;stroke-width:1;marker:none;visibility:visible;display:inline;overflow:visible;enable-background:accumulate" />
      <path
         
         id="path4967"
         d="m 61.314301,2.9655478 c -1.736517,1.8844665 -4.647522,1.7624641 -6.77285,2.9604117 -0.325461,0.698048 0.182047,1.5933179 -0.01466,2.3975678 0.158312,1.6787047 -0.402351,3.1840927 -1.014575,4.6989307 -1.816886,5.243454 -3.002928,10.70659 -4.72079,15.950852 -1.170113,2.623824 -3.037841,4.800041 -4.800171,7.002652 0.27496,0.852737 1.686336,0.56579 2.412035,0.923856 1.894502,0.520276 3.912972,0.871584 5.639393,1.780719 0.486918,0.963924 -1.144207,0.766138 -1.64327,0.962958 -2.082682,0.463405 -4.315373,0.562832 -6.291254,1.317652 0.384101,0.841742 1.921239,0.621743 2.717894,1.030665 2.051398,0.640583 3.790484,2.519381 6.114373,1.887107 1.524039,-0.272924 3.401401,-0.395872 4.552681,-1.485075 0.03586,-0.871085 -1.651075,-0.367529 -2.328436,-0.38548 -0.682817,-0.06585 -1.916486,0.411359 -2.398673,-0.04575 1.770419,-1.664024 4.015163,-2.793491 5.793807,-4.488129 1.144406,-1.066104 2.491322,-2.089573 3.178195,-3.508636 -0.527579,-0.754038 -1.713287,0.216179 -2.4425,0.257835 -1.334045,0.324818 -2.830913,1.125011 -4.147684,0.875161 1.122571,-2.438272 2.691733,-4.682807 3.622908,-7.229041 1.757933,-4.412733 3.357318,-8.996981 3.16647,-13.822683 C 61.88099,10.444533 62.30371,6.7878585 61.832993,3.2141135 61.763624,3.0089455 61.52115,2.8728255 61.314251,2.9655849 z"
         style="color:#000000;fill:#59513a;fill-opacity:1;fill-rule:nonzero;stroke:#000000;stroke-width:1;marker:none;visibility:visible;display:inline;overflow:visible;enable-background:accumulate" />
    
    </g>
    <g id="bullet">
      <circle cx="5" cy="5" r="5" style="fill:red"/>
      <circle cx="6" cy="3" r="3" style="fill:orange"/>
    </g>
    <g id="goodthing">
		<animateTransform type="scale" 
			attributeName="transform" attributeType="XML" dur="1s" 
			values="1;1.2;1" repeatCount="indefinite"/>
      <path
         
         id="path5006"
         d="m 2.8424758,1.6649801 c 0.0696,0.17117 0.21545,0.360685 0.42527,0.297333 0.27575,-0.131383 0.55501,-0.271244 0.86597,-0.279698 1.27895,-0.13941 2.57653,-0.0093 3.82838,0.257888 0.7177199,0.158341 1.4341299,0.338473 2.1244702,0.590612 0.54944,0.299388 1.09038,0.623805 1.57737,1.017915 0.83715,0.686028 1.55709,1.540274 2.53592,2.041113 0.62047,0.271794 1.0908,0.775148 1.50947,1.290359 0.2572,0.298041 0.46606,0.655493 0.81758,0.857365 0.5999,0.446981 1.09308,1.055762 1.36519,1.7567899 0.13339,0.338814 0.33734,0.664656 0.3431,1.037492 0.0217,0.179288 -0.0315,0.426569 0.17589,0.511358 0.18506,0.06051 0.39485,0.04369 0.58765,0.01649 0.36837,-0.05423 0.68305,-0.35009 0.7419,-0.718412 0.0613,-0.323595 0.0916,-0.654756 0.21303,-0.964594 0.21243,-0.6538969 0.0971,-1.3721299 -0.19707,-1.9813489 -0.19761,-0.488333 -0.46936,-0.941957 -0.79081,-1.358978 -0.88117,-1.16367 -1.96627,-2.165655 -3.14456,-3.02686 -0.58258,-0.410984 -1.26832,-0.64009 -1.9252,-0.904844 -0.13155,-0.03508 -0.18897,-0.207169 -0.10193,-0.309547 0.22756,-0.230259 0.56073,-0.351813 0.73385,-0.638944 0.29698,-0.33258904 0.71651,-0.51602304 1.05586,-0.79492404 0.14609,-0.1582499 0.0528,-0.3962489 -0.10653,-0.5049519 -0.4464,-0.375366 -0.89953,-0.744894 -1.3712,-1.08787896 -0.17995,-0.11751 -0.43063,0.02095 -0.45181,0.228085 -0.18432,0.72736896 -0.26736,1.48484886 -0.46165,2.2053359 -0.0681,0.195799 -0.12474,0.410725 -0.25497,0.573788 -0.0769,0.05546 -0.1981,0.09233 -0.25976,-0.0066 -0.19365,-0.277235 -0.3978,-0.549135 -0.64327,-0.78550004 -0.63419,-0.621703 -1.34323,-1.1763339 -2.1242703,-1.6041309 -0.52734,-0.2691 -1.12462,-0.344239 -1.6971799,-0.46815396 -0.45092,-0.07756 -0.90689,-0.163913 -1.36473,-0.16285 -0.32193,0.0811 -0.60615,0.30060296 -0.94792,0.31320996 -0.89643,0.110473 -1.79734,0.379732 -2.53212,0.917327 -0.38664,0.2989979 -0.73127,0.7580099 -0.65707,1.27091394 0.0188,0.145054 0.0705,0.282606 0.13119,0.414966 z"
         style="color:#000000;fill:#654133;fill-opacity:1;fill-rule:nonzero;stroke:none;stroke-width:1;marker:none;visibility:visible;display:inline;overflow:visible;enable-background:accumulate" />
      <path
         
         id="path4995"
         d="M 10.021556,2.7033971 C 8.1675558,2.1012051 6.1889258,1.6679231 4.2290158,1.8674091 c -1.04599,0.016494 -1.5278,0.989988 -1.93219,1.789128 -0.54544,1.042541 -1.04084,1.826289 -1.75499004,4.032123 -0.24184,2.0778979 -0.41875,2.2913809 -0.44818,3.4361469 0.13008,1.457817 0.10303,2.932306 0.30816,4.380568 0.27503,1.46718 0.72200004,2.895959 1.19853004,4.305764 -0.15014,1.272618 1.44327,0.493882 2.19329,0.505914 1.89201,-0.358587 3.87619,-0.336582 5.6737199,-1.096749 0.9658903,-0.345372 1.2924803,-0.381616 3.0041203,-1.269415 1.25474,-1.000678 1.46664,-1.222885 2.61023,-2.327029 0.99001,-0.846645 1.87537,-1.853132 2.32942,-3.088073 0.56463,-0.808945 0.89136,-1.834345 0.40532,-2.762341 -0.33049,-0.8528779 -0.9095,-1.6217739 -1.70863,-2.0784409 -0.61403,-0.754079 -1.14817,-1.596065 -2.09401,-1.970383 -1.26971,-0.684336 -2.08291,-1.939049 -3.34911,-2.629909 -0.21187,-0.134132 -0.42659,-0.263857 -0.64292,-0.390827 z"
         style="color:#000000;fill:#bc7e5f;fill-opacity:1;stroke:#000000;stroke-width:0.99999994;stroke-linecap:round;stroke-linejoin:round;stroke-miterlimit:4;stroke-opacity:1;stroke-dasharray:none;stroke-dashoffset:0;marker:none;visibility:visible;display:inline;overflow:visible;enable-background:accumulate" />
      <path
         
         id="path4998"
         d="m 17.790426,10.884097 c 0.40905,0.534285 1.46219,0.532002 1.90947,0.0075 0.34478,-0.404306 0.2319,-0.904111 0.39344,-1.303867 0.96247,-2.3818439 -2.37807,-5.4612919 -4.16723,-6.7475689 -0.61107,-0.439311 -1.37681,-0.680604 -1.98448,-0.922408 -0.0486,-0.01922 0.60938,-0.407411 0.62965,-0.457504 0.21779,-0.53897704 1.25434,-0.79272304 1.46709,-1.31918194 0.0438,-0.107907 -2.0779,-1.80045496 -2.41981,-1.93649796 -0.0511,-0.02029 -0.10248,-0.08252 -0.15326,-0.06092 -0.0166,0.0073 0.0272,0.669643 0.006,0.754843 -0.16228,0.65825296 -0.25521,1.26957796 -0.37924,1.92908486 -0.0771,0.40999604 -0.28342,0.82003604 -0.2852,0.81587204 -0.30741,-0.71614704 -2.381,-2.42932194 -3.3693603,-2.6683869 -0.8814899,-0.213204 -1.6831399,-0.384484 -2.5375199,-0.434396 -0.27456,-0.01594 -0.60317,0.289558 -0.88247,0.312636 -2.0874,0.17311296 -4.6734,1.54769786 -2.95865,3.4694999"
         style="color:#000000;fill:none;stroke:#000000;stroke-width:0.99999994;stroke-linecap:round;stroke-linejoin:round;stroke-miterlimit:4;stroke-opacity:1;stroke-dasharray:none;stroke-dashoffset:0;marker:none;visibility:visible;display:inline;overflow:visible;enable-background:accumulate" />
      <path
         
         id="path5008"
         d="m 7.5570558,16.788229 c 1.1274399,-0.219006 2.1878299,-0.621133 3.2769202,-0.949173 0.90944,-0.273903 3.70918,-3.209884 1.99097,-3.526213 -2.17941,-0.401225 -6.6393702,2.486843 -5.2678902,4.475386 z"
         style="color:#000000;fill:#f9f9f9;fill-opacity:1;fill-rule:nonzero;stroke:none;stroke-width:1;marker:none;visibility:visible;display:inline;overflow:visible;enable-background:accumulate" />
    </g>
    <g
       id="chipmunk">
		<animateTransform type="rotate" 
			attributeName="transform" attributeType="XML" dur="1s" 
			values="5 20 20;10 20 20;5 20 20" repeatCount="indefinite"/>
      <path
         style="color:#000000;fill:#333333;stroke:#000000;stroke-width:0.99999994;stroke-linecap:round;stroke-linejoin:round;stroke-miterlimit:4;stroke-opacity:1;stroke-dasharray:none;stroke-dashoffset:0;marker:none;visibility:visible;display:inline;overflow:visible;enable-background:accumulate"
         d="m 18.459981,28.2154 c 1.010231,0.479361 1.949742,-0.46773 2.395085,-0.91371 1.448257,-1.450285 -1.499198,-4.095144 -2.73724,-2.855271 -0.95391,0.955224 -1.119518,4.944169 1.596724,3.312126"
         id="path8111-1"
         />
      <path
         style="color:#000000;fill:#333333;stroke:#000000;stroke-width:0.99999994;stroke-linecap:round;stroke-linejoin:round;stroke-miterlimit:4;stroke-opacity:1;stroke-dasharray:none;stroke-dashoffset:0;marker:none;visibility:visible;display:inline;overflow:visible;enable-background:accumulate"
         d="m 37.186771,16.543238 c -4.765674,1.237791 0.912413,5.984031 0.912413,2.170036 0,-1.050927 -0.108587,-1.526033 -0.912413,-2.170036 z"
         id="path8117-7"
         />
      <path
         style="color:#000000;fill:#8c4e25;fill-opacity:1;fill-rule:nonzero;stroke:none;stroke-width:1;marker:none;visibility:visible;display:inline;overflow:visible;enable-background:accumulate"
         d="m 18.838139,-2.3780785 c -4.302546,-0.092676 -8.410799,1.8446299 -11.7159907,4.5004589 -4.009536,3.315247 -6.84575757,7.9400636 -8.4317974,12.8584156 -0.4271713,2.935086 0.058619,5.983748 1.41636633,8.623973 0.21446035,0.47227 0.52740995,0.950118 0.82768085,1.334629 -1.31083335,1.603484 -2.71764098,3.558474 -2.32814648,5.755179 0.2227237,1.48064 1.14566023,2.854231 2.35470458,3.697866 C 1.9874971,34.502141 1.7426967,33.207609 1.7930712,32.556797 1.6244472,30.056909 3.0125535,27.589553 5.0905482,26.247359 5.8694243,25.934625 5.3871506,24.973631 5.0108453,24.509211 3.7239134,22.087437 2.7091909,19.410424 2.9438369,16.621256 2.813977,14.223123 3.3935956,11.796052 4.7547372,9.7973709 5.9114873,8.0397424 7.6580393,6.5635464 9.6937053,5.9620984 14.409695,6.1514224 18.315438,9.4463379 21.055411,13.04661 c 2.308849,3.006769 3.926458,6.527889 4.81584,10.194548 0.444228,1.489435 2.177392,2.088236 2.881424,3.405275 0.867608,0.408153 1.652232,-0.536386 2.486418,-0.69507 0.685719,-0.249469 1.895898,-0.368907 1.558621,-1.404703 -0.03413,-1.122231 -0.385684,-2.254769 -1.243299,-3.012537 -0.87311,-1.843401 -1.143816,-3.924355 -1.575072,-5.901096 -0.532487,-3.309195 -1.13596,-6.8513096 -0.02723,-10.0965766 0.363796,-1.007993 1.173249,-1.836403 2.221923,-2.119443 0.889873,-0.690436 -0.36791,-1.344085 -0.900444,-1.770962 -3.445102,-2.435771 -7.543002,-4.2746328 -11.846844,-4.0285686 -0.196231,0 -0.392444,0 -0.588676,0 z"
         id="path9116-4"
         />
      <path
         style="color:#000000;fill:#dfad7c;fill-opacity:1;fill-rule:nonzero;stroke:none;stroke-width:1;marker:none;visibility:visible;display:inline;overflow:visible;enable-background:accumulate"
         d="m 32.200661,3.0800644 c -1.992534,0.289943 -2.891673,2.432082 -3.129278,4.212218 -0.304677,3.9373116 0.205469,7.8877666 1.221609,11.6923056 0.270186,1.258313 0.642086,2.53535 1.562432,3.4762 0.28762,0.593883 0.66299,1.26446 1.429641,1.219352 1.614101,0.60977 2.818011,2.175048 3.186828,3.839811 0.199806,1.702496 -0.498384,3.830072 -2.372422,4.234347 -0.833817,0.01891 -1.788181,0.646935 -1.580131,1.596202 0.03489,0.496857 0.961238,0.334958 0.37623,0.85574 -1.273781,1.971067 -2.327437,4.149615 -4.032218,5.799625 -0.359694,0.356708 -0.962476,0.793704 -1.36325,0.239445 -1.647278,-1.804061 -2.859565,-4.064504 -4.961707,-5.427125 -0.762737,-0.553597 -1.606245,-0.980096 -2.429954,-1.432222 0.562921,-0.832571 1.535589,-1.252923 2.067017,-2.083886 0.21447,-1.317512 0.278752,-2.68278 0.973746,-3.875274 0.614715,-1.311649 1.686335,-2.368345 2.960182,-3.012064 0.410824,-0.723535 -0.03706,-1.672802 -0.167291,-2.468302 -1.653887,-5.531622 -4.894787,-10.772449 -9.702099,-14.0954506 -2.025436,-1.340114 -4.415964,-2.32787 -6.8605167,-2.301202 -2.735831,1.158072 -5.0007354,3.375676 -6.0448525,6.1798816 -1.0189487,2.402672 -0.9309257,5.102096 -0.6696081,7.649551 0.4254413,2.2786 1.3797295,4.424427 2.6556845,6.344901 -3.0186871,1.50816 -4.68258612,5.374829 -3.7046707,8.601844 0.7531401,1.721409 2.791151,2.196043 4.3331888,2.953054 0.782024,0.364368 1.677467,0.63937 2.496345,0.212777 0.06628,1.023313 1.403754,0.895363 2.1112657,1.143981 2.925624,0.64911 5.98612,0.901889 8.958508,0.456666 0.350739,-0.116318 0.830857,-0.267059 0.849814,-0.718239 1.999048,1.363944 2.836864,4.259501 5.382194,4.872865 2.71678,0.514919 5.032248,-1.505606 6.679365,-3.414543 1.160967,-1.323753 2.158586,-2.779333 3.106833,-4.260636 0.571591,0.905293 1.601545,-0.0095 2.228163,-0.377135 3.024842,-2.280964 5.036503,-5.665812 6.442649,-9.124707 0.782459,-2.17136 1.60372,-4.833242 0.296545,-6.965735 -0.722989,-1.131309 -2.047919,-1.773516 -3.377142,-1.755832 0.669864,-1.171405 -0.130663,-2.556627 -0.593101,-3.666848 -1.729401,-3.3735 -3.857562,-6.5670396 -6.334383,-9.4359286 -0.530473,-0.557664 -1.154112,-1.247722 -1.995616,-1.165637 z m 2.730925,9.4974916 c 0.930046,0.223085 1.297653,1.331603 1.752754,2.075091 0.955754,2.086818 1.891993,4.479088 1.168503,6.761754 -0.368496,1.066152 -1.800009,0.948699 -2.50962,0.345833 -2.496278,-1.632895 -2.718662,-5.197705 -1.597839,-7.728327 0.2774,-0.519647 0.570466,-1.282995 1.186202,-1.454351 z m -22.055458,4.167866 c 2.021882,0.02837 3.405979,1.808695 4.607611,3.201294 1.213479,1.50693 2.376895,3.069183 3.461241,4.668978 -0.812118,0.641545 0.514079,1.634502 -0.09737,2.367682 -0.613391,0.843825 -1.616522,1.219352 -2.629127,1.40111 -1.588091,0.452788 -3.332119,0.696772 -4.943998,0.239444 -2.491589,-0.934892 -3.5847947,-3.768224 -3.5099327,-6.260735 0.04245,-1.885578 0.4289207,-4.12115 2.0891417,-5.258606 0.317573,-0.170788 0.666819,-0.353871 1.022437,-0.359167 z"
         id="path9118-0"
         />
      <path
         style="color:#000000;fill:#1a1a1a;fill-opacity:1;fill-rule:nonzero;stroke:none;stroke-width:1;marker:none;visibility:visible;display:inline;overflow:visible;enable-background:accumulate"
         d="m 33.612716,25.025076 c -2.131338,0.164736 -4.243407,1.034472 -5.818224,2.476813 -0.494508,0.40002 -0.661458,1.265784 -0.0066,1.60216 1.034512,0.516148 2.241013,0.499032 3.370751,0.558042 0.735261,-0.04256 1.42271,-0.369191 2.084414,-0.62074 0.566713,-0.07187 0.701064,-0.683155 0.90763,-1.109937 0.35005,-0.548018 0.6616,-1.169609 0.781608,-1.789687 -0.164662,-0.602488 -0.619111,-1.269755 -1.319929,-1.116651 z"
         id="path9122-9"
         />
      <path
         style="color:#000000;fill:#ffbcbf;fill-opacity:1;fill-rule:nonzero;stroke:none;stroke-width:1;marker:none;visibility:visible;display:inline;overflow:visible;enable-background:accumulate"
         d="m 29.643844,37.188326 c -0.947159,0.136461 -1.841297,0.597288 -2.816783,0.489954 -0.371899,0.03972 -1.264108,-0.163507 -1.107936,0.475768 0.606432,0.872194 1.15261,1.853992 2.031213,2.476813 0.794694,0.213722 1.32997,-0.674171 1.818464,-1.154194 0.432845,-0.589628 1.052655,-1.126676 1.23305,-1.855695 -0.09783,-0.479267 -0.794287,-0.401155 -1.158008,-0.432646 z"
         id="path9126-4"
         />
      <path
         style="color:#000000;fill:#f4f4f4;fill-opacity:1;fill-rule:nonzero;stroke:none;stroke-width:1;marker:none;visibility:visible;display:inline;overflow:visible;enable-background:accumulate"
         d="m 33.030233,23.487222 c -0.653715,0.151781 -0.327283,1.023692 -0.394345,1.483005 0.260835,0.564567 1.067981,0.106672 1.536705,0.376189 0.778053,0.269422 0.522664,1.282333 0.219084,1.831013 -0.399261,0.73857 -0.748867,1.651807 -1.652506,1.887469 -1.44249,0.668024 -3.111031,0.396521 -4.607006,0.04728 -0.522607,-0.144216 -0.809405,-0.7781 -0.441296,-1.222756 0.276823,-0.569295 1.163132,-0.80108 1.158017,-1.489246 -0.646293,-0.797203 -1.514799,-1.445273 -2.314437,-2.074618 -1.175424,0.137406 -2.164798,1.048278 -2.859055,1.982887 -0.91958,1.268054 -1.525284,2.832292 -1.489753,4.408919 0.25348,0.55615 0.857718,-0.02837 1.223727,-0.144216 0.118657,-0.08227 0.77742,-0.299589 0.36306,-0.06903 -0.658783,0.413165 -1.523157,0.632466 -1.9874,1.282333 -0.01948,0.552746 0.7566,0.596247 1.10856,0.853092 2.196698,1.082701 5.028513,1.333872 7.135789,-0.09561 0.755334,-0.504801 1.340134,-1.291507 1.902318,-1.933146 -0.182438,0.301008 -0.422662,0.810631 0.08802,0.921086 1.16491,0.647313 2.805456,0.537237 3.652046,-0.585656 1.120851,-1.266634 1.353823,-3.213208 0.501438,-4.686851 -0.640441,-1.229754 -1.714,-2.530244 -3.14295,-2.771958 z"
         id="path9128-8"
         />
      <path
         style="color:#000000;fill:#5c1e07;fill-opacity:1;fill-rule:nonzero;stroke:none;stroke-width:1;marker:none;visibility:visible;display:inline;overflow:visible;enable-background:accumulate"
         d="m 21.412589,32.06533 c -0.530293,0.221288 -0.988003,0.668875 -1.330149,1.12242 0.01834,0.581116 0.815995,0.643436 1.183044,0.956265 1.447113,0.75616 2.585276,1.939765 3.771355,3.028613 0.33548,0.212777 0.756695,0.145728 1.126713,0.319827 1.161998,0.33647 2.277951,-0.292119 3.408304,-0.391887 0.517331,-0.08416 1.067035,0.257601 1.549224,0.05958 0.712541,-0.740651 1.188357,-1.696821 1.690069,-2.586605 0.118826,-0.502153 -0.535701,-0.451749 -0.769913,-0.188095 -0.860526,0.612986 -2.008606,0.941796 -3.048384,0.579982 0.01295,-0.498843 0.418729,-1.118543 0.09294,-1.557713 -0.582049,-0.164453 -1.203145,0.265734 -1.811109,0.185635 -1.907167,0.155563 -3.803698,-0.399736 -5.433343,-1.361864 -0.110828,-0.111968 -0.267586,-0.193674 -0.428779,-0.166155 z"
         id="path9132-8"
         />
      <path
         style="color:#000000;fill:#ffffff;fill-opacity:1;fill-rule:nonzero;stroke:none;stroke-width:1;marker:none;visibility:visible;display:inline;overflow:visible;enable-background:accumulate"
         d="m 31.383986,31.516651 c -0.510033,0.684951 -1.346828,1.023975 -1.855952,1.696159 -0.2247,0.511326 -0.368694,1.103128 -0.316098,1.652281 0.843479,0.332877 1.80276,-0.01135 2.573419,-0.427161 0.591248,-0.365597 0.637519,-1.209422 0.953816,-1.79886 0.296905,-0.443521 -0.164048,-0.784247 -0.553968,-0.918627 -0.243742,-0.09485 -0.537905,-0.419311 -0.801217,-0.203792 z"
         id="path9136-2"
         />
      <path
         style="color:#000000;fill:#6d3d23;fill-opacity:1;fill-rule:nonzero;stroke:none;stroke-width:1;marker:none;visibility:visible;display:inline;overflow:visible;enable-background:accumulate"
         d="m 11.364913,-13.726045 c -0.778602,0.52448 -1.228011,1.439504 -1.8152497,2.160202 -1.780465,2.6675928 -3.380687,5.6450831 -3.661529,8.9039679 -0.152778,1.4953932 0.221939,3.11977646 1.383843,4.1496145 0.444719,0.646557 0.997401,-0.20644 1.451424,-0.41846 0.58618,-0.47756504 1.3702557,-0.72854704 1.8622007,-1.285454 -0.308071,-2.2485276 -0.7638987,-4.5419745 -0.406891,-6.8180211 0.112019,-0.6901523 0.288027,-1.4495753 0.629104,-2.0297175 0.793493,0.6543586 1.163341,1.6915448 1.633739,2.5835038 0.671688,1.3925986 0.898525,2.9259133 0.895111,4.4645238 -0.05087,0.3893337 0.306521,0.7189008 0.676028,0.4923175 0.43795,-0.2088992 1.239545,-0.1107383 1.364564,-0.6584723 -0.711936,-3.230231 -1.00124,-6.5982843 -2.319145,-9.6597126 -0.403648,-0.684648 -0.766462,-1.588778 -1.555482,-1.890562 -0.04576,-0.0085 -0.09181,0.0028 -0.137717,0.0066 z"
         id="path9144-4"
         />
      <path
         style="color:#000000;fill:#6d3d23;fill-opacity:1;fill-rule:nonzero;stroke:none;stroke-width:1;marker:none;visibility:visible;display:inline;overflow:visible;enable-background:accumulate"
         d="m 20.610209,-12.798008 c -1.353994,1.281538 -2.535373,2.8131697 -3.001593,4.6517667 -0.50538,1.8664092 -0.795582,3.8039047 -0.913727,5.7291065 0.322063,0.4450338 0.973878,0.058632 1.430302,0.1191548 1.063216,-0.1244506 2.167143,0.084165 3.213784,-0.046338 0.24239,-0.5854663 -0.06845,-1.3092847 -0.0104,-1.9447772 -0.0066,-1.4144435 -0.128517,-2.8591487 0.06713,-4.2547166 0.128641,-0.2867282 0.343091,0.292998 0.456945,0.3825059 0.789086,1.3593676 1.683526,2.7722981 1.878841,4.354315 0.100106,0.584899 -0.0099,1.1856852 -0.05106,1.7563045 0.220426,0.371555 0.782771,0.500734 1.173655,0.4421023 0.522428,-0.5326032 0.459611,-1.4122686 0.491378,-2.1100809 -0.193556,-2.7653379 -1.705641,-5.2112463 -3.18888,-7.469836 -0.432882,-0.56311 -0.73737,-1.283269 -1.336749,-1.678834 -0.06987,0.02298 -0.139796,0.04596 -0.209695,0.06894 z"
         id="path9146-5"
         />
      <path
         style="color:#000000;fill:#deac74;fill-opacity:1;fill-rule:nonzero;stroke:none;stroke-width:1;marker:none;visibility:visible;display:inline;overflow:visible;enable-background:accumulate"
         d="m 10.826592,-8.4932845 c -0.554214,0.3768792 -0.460414,1.2065941 -0.564132,1.7994367 -0.110468,2.0458696 -0.05966,4.1575581 0.448341,6.1390272 0.324257,0.49071 0.890346,-0.121235 1.289456,-0.213155 0.570155,-0.203792 1.166082,-0.5727938 1.173656,-1.2572722 0.221731,-2.1714551 -0.691335,-4.2940188 -1.75266,-6.1357082 -0.125898,-0.1957071 -0.333882,-0.4228862 -0.594661,-0.3323285 z"
         id="path9158-5"
         />
      <path
         style="color:#000000;fill:#deac74;fill-opacity:1;fill-rule:nonzero;stroke:none;stroke-width:1;marker:none;visibility:visible;display:inline;overflow:visible;enable-background:accumulate"
         d="m 21.608604,-7.602829 c -0.386063,0.4070178 -0.135609,1.0811883 -0.215104,1.592703 0.07063,1.1976007 -0.07129,2.4433361 0.255787,3.6023533 0.383169,0.4159072 1.06314,0.3619092 1.580528,0.4264041 0.557022,-0.338551 0.441003,-1.1568421 0.438167,-1.7180992 C 23.419078,-5.0265312 22.911656,-6.343665 22.109361,-7.4366742 21.98211,-7.574648 21.800269,-7.6794286 21.608604,-7.602829 z"
         id="path9160-1"
         />
      <path
         style="color:#000000;fill:#f9fafc;fill-opacity:1;fill-rule:nonzero;stroke:none;stroke-width:1;marker:none;visibility:visible;display:inline;overflow:visible;enable-background:accumulate"
         d="m 12.898498,16.780034 c -1.595598,0.147998 -2.451133,1.80321 -2.841998,3.18134 -0.3885017,1.476385 -0.3673797,3.080436 -0.06552,4.575356 0.5017687,1.911679 1.8287977,3.79234 3.8683687,4.213732 1.337467,0.244834 2.774567,0.143269 4.043639,-0.341767 0.190531,-0.262424 -0.367181,-0.44371 -0.375567,-0.743015 -0.432287,-1.105965 -0.300612,-2.511614 0.497627,-3.420595 0.681493,-0.571282 1.647486,-0.236986 2.35045,0.156792 0.397115,0.139771 0.202349,-0.374486 0.01957,-0.506691 -1.622951,-2.284085 -3.198505,-4.703023 -5.437163,-6.419136 -0.604144,-0.410517 -1.306172,-0.750203 -2.059379,-0.696016 z"
         id="path9164-7"
         />
      <path
         style="color:#000000;fill:#f9fafc;fill-opacity:1;fill-rule:nonzero;stroke:none;stroke-width:1;marker:none;visibility:visible;display:inline;overflow:visible;enable-background:accumulate"
         d="m 34.900669,12.494148 c -1.367476,1.211313 -1.793608,3.150511 -1.796482,4.912962 0.02439,1.97589 1.201755,3.916033 2.998312,4.762506 0.888966,0.381957 1.77936,-0.397656 1.902885,-1.269851 0.04491,-0.213154 0.238608,-0.858387 -0.187788,-0.705377 -0.719132,0.311599 -1.616673,0.101943 -2.103192,-0.542439 -0.755069,-0.658756 -0.904774,-2.076225 0.0313,-2.652424 0.435142,-0.428579 1.157138,-0.441535 1.542964,-0.899808 -0.498478,-1.335386 -1.165429,-2.743493 -2.322275,-3.636871 l -0.06571,0.03121 z"
         id="path9166-1"
         />
      <path
         style="color:#000000;fill:none;stroke:#000000;stroke-width:0.99999994;stroke-linecap:round;stroke-linejoin:round;stroke-miterlimit:4;stroke-opacity:1;stroke-dasharray:none;stroke-dashoffset:0;marker:none;visibility:visible;display:inline;overflow:visible;enable-background:accumulate"
         d="M 1.2381388,25.017416 C -0.55250017,23.283997 -1.9571427,17.484844 -1.0428951,14.738231 4.4714185,-1.828264 21.453018,-8.3052941 34.08509,4.3447134 35.392756,5.6542814 44.249296,17.593502 40.129849,17.593502"
         id="path8061-5"
         />
      <path
         style="color:#000000;fill:none;stroke:#000000;stroke-width:0.99999994;stroke-linecap:round;stroke-linejoin:round;stroke-miterlimit:4;stroke-opacity:1;stroke-dasharray:none;stroke-dashoffset:0;marker:none;visibility:visible;display:inline;overflow:visible;enable-background:accumulate"
         d="m 41.156314,17.47936 c 9.845328,0.88392 -1.865482,19.902546 -5.930697,18.274191"
         id="path8063-2"
         />
      <path
         style="color:#000000;fill:none;stroke:#000000;stroke-width:0.99999994;stroke-linecap:round;stroke-linejoin:round;stroke-miterlimit:4;stroke-opacity:1;stroke-dasharray:none;stroke-dashoffset:0;marker:none;visibility:visible;display:inline;overflow:visible;enable-background:accumulate"
         d="M 1.2381388,24.903179 C -8.9515186,35.613686 14.680685,40.945108 20.512921,38.608917"
         id="path8073-7"
         />
      <path
         style="color:#000000;fill:none;stroke:#000000;stroke-width:0.99999994;stroke-linecap:round;stroke-linejoin:round;stroke-miterlimit:4;stroke-opacity:1;stroke-dasharray:none;stroke-dashoffset:0;marker:none;visibility:visible;display:inline;overflow:visible;enable-background:accumulate"
         d="m 19.600498,37.695207 c 2.774662,1.209138 3.00685,3.904023 5.246387,5.025403 4.872436,2.439648 9.669735,-5.745628 11.6333,-9.022953"
         id="path8079-6"
         />
      <path
         style="color:#000000;fill:none;stroke:#000000;stroke-width:0.99999994;stroke-linecap:round;stroke-linejoin:round;stroke-miterlimit:4;stroke-opacity:1;stroke-dasharray:none;stroke-dashoffset:0;marker:none;visibility:visible;display:inline;overflow:visible;enable-background:accumulate"
         d="m 20.284808,33.697657 c 9.13757,4.256665 4.980068,13.69335 13.458127,-0.456855"
         id="path8081-1"
         />
      <path
         style="color:#000000;fill:none;stroke:#000000;stroke-width:0.99999994;stroke-linecap:round;stroke-linejoin:round;stroke-miterlimit:4;stroke-opacity:1;stroke-dasharray:none;stroke-dashoffset:0;marker:none;visibility:visible;display:inline;overflow:visible;enable-background:accumulate"
         d="m 25.531195,37.352495 c 2.797032,1.147575 3.011086,-1.011492 5.518133,0.06336"
         id="path8087-4"
         
         />
      <path
         style="color:#000000;fill:none;stroke:#000000;stroke-width:0.99999994;stroke-linecap:round;stroke-linejoin:round;stroke-miterlimit:4;stroke-opacity:1;stroke-dasharray:none;stroke-dashoffset:0;marker:none;visibility:visible;display:inline;overflow:visible;enable-background:accumulate"
         d="m 30.326717,29.45792 c 2.281838,0.06147 3.111428,-0.846661 3.344476,-1.172635 5.285303,-7.390815 -12.934679,1.072299 -3.235757,1.072299"
         id="path8091-2"
         
         />
      <path
         style="color:#000000;fill:none;stroke:#000000;stroke-width:0.99999994;stroke-linecap:round;stroke-linejoin:round;stroke-miterlimit:4;stroke-opacity:1;stroke-dasharray:none;stroke-dashoffset:0;marker:none;visibility:visible;display:inline;overflow:visible;enable-background:accumulate"
         d="m 36.82234,22.504762 c 3.902198,-0.733369 -0.698057,-11.636037 -2.281033,-10.0509 -2.203591,2.206729 -2.766673,8.210714 1.660117,10.019693"
         id="path8101-3"
         
         />
      <path
         style="color:#000000;fill:none;stroke:#000000;stroke-width:0.99999994;stroke-linecap:round;stroke-linejoin:round;stroke-miterlimit:4;stroke-opacity:1;stroke-dasharray:none;stroke-dashoffset:0;marker:none;visibility:visible;display:inline;overflow:visible;enable-background:accumulate"
         d="M 21.311283,24.789036 C 19.483619,22.145123 18.135563,20.12403 16.178938,18.164594 8.2730183,10.247417 5.3887863,33.748251 18.916188,28.329637"
         id="path8107-2"
         />
      <path
         style="color:#000000;fill:none;stroke:#000000;stroke-width:0.99999994;stroke-linecap:round;stroke-linejoin:round;stroke-miterlimit:4;stroke-opacity:1;stroke-dasharray:none;stroke-dashoffset:0;marker:none;visibility:visible;display:inline;overflow:visible;enable-background:accumulate"
         d="M 5.6861643,25.816888 C 1.1002708,20.076462 1.1036745,8.8961444 9.5639313,5.7152774 18.288426,5.9920764 25.001421,16.69464 26.215515,23.989469"
         id="path8121-2"
         />
      <path
         style="color:#000000;fill:none;stroke:#000000;stroke-width:0.99999994;stroke-linecap:round;stroke-linejoin:round;stroke-miterlimit:4;stroke-opacity:1;stroke-dasharray:none;stroke-dashoffset:0;marker:none;visibility:visible;display:inline;overflow:visible;enable-background:accumulate"
         d="M 31.233798,21.591053 C 29.835793,17.585464 26.311186,2.1335394 33.40078,3.3167664"
         id="path8127-1"
         />
      <path
         style="color:#000000;fill:none;stroke:#000000;stroke-width:0.99999994;stroke-linecap:round;stroke-linejoin:round;stroke-miterlimit:4;stroke-opacity:1;stroke-dasharray:none;stroke-dashoffset:0;marker:none;visibility:visible;display:inline;overflow:visible;enable-background:accumulate"
         d="m 22.133111,31.226234 c -0.406371,-2.373072 1.55586,-6.612904 4.515531,-7.032405"
         id="path8129-6"
         
         />
      <path
         style="color:#000000;fill:none;stroke:#000000;stroke-width:0.99999994;stroke-linecap:round;stroke-linejoin:round;stroke-miterlimit:4;stroke-opacity:1;stroke-dasharray:none;stroke-dashoffset:0;marker:none;visibility:visible;display:inline;overflow:visible;enable-background:accumulate"
         d="m 25.987411,23.646852 c 0.698209,0.784341 2.471167,2.13202 2.73725,2.398511"
         id="path8131-8"
         />
      <path
         style="color:#000000;fill:none;stroke:#000000;stroke-width:0.99999994;stroke-linecap:round;stroke-linejoin:round;stroke-miterlimit:4;stroke-opacity:1;stroke-dasharray:none;stroke-dashoffset:0;marker:none;visibility:visible;display:inline;overflow:visible;enable-background:accumulate"
         d="m 31.225573,21.566843 c 1.481263,0.7433 1.376845,3.067008 1.376845,3.222193"
         id="path8133-5"
         
         />
      <path
         style="color:#000000;fill:none;stroke:#000000;stroke-width:0.99999994;stroke-linecap:round;stroke-linejoin:round;stroke-miterlimit:4;stroke-opacity:1;stroke-dasharray:none;stroke-dashoffset:0;marker:none;visibility:visible;display:inline;overflow:visible;enable-background:accumulate"
         d="m 32.735833,23.378659 c 2.137238,0.09835 3.911142,2.749072 4.086507,4.810546"
         id="path8135-7"
         
         />
      <path
         style="color:#000000;fill:none;stroke:#000000;stroke-width:0.99999994;stroke-linecap:round;stroke-linejoin:round;stroke-miterlimit:4;stroke-opacity:1;stroke-dasharray:none;stroke-dashoffset:0;marker:none;visibility:visible;display:inline;overflow:visible;enable-background:accumulate"
         d="m 21.881541,32.212855 c 3.872491,2.181763 7.926209,1.923311 10.036567,-1.598944"
         id="path8137-6"
         />
      <path
         style="color:#000000;fill:none;stroke:#000000;stroke-width:0.99999994;stroke-linecap:round;stroke-linejoin:round;stroke-miterlimit:4;stroke-opacity:1;stroke-dasharray:none;stroke-dashoffset:0;marker:none;visibility:visible;display:inline;overflow:visible;enable-background:accumulate"
         d="m 31.918108,31.52762 c 2.512683,1.57814 4.790181,-0.772804 4.790181,-2.969508"
         id="path8139-1"
         />
      <path
         style="color:#000000;fill:none;stroke:#000000;stroke-width:0.99999994;stroke-linecap:round;stroke-linejoin:round;stroke-miterlimit:4;stroke-opacity:1;stroke-dasharray:none;stroke-dashoffset:0;marker:none;visibility:visible;display:inline;overflow:visible;enable-background:accumulate"
         d="m 23.934471,30.385531 c -2.227,0.849214 -5.641989,3.562067 -5.246387,5.939112"
         id="path8147-8"
         />
      <path
         style="color:#000000;fill:none;stroke:#000000;stroke-width:0.99999994;stroke-linecap:round;stroke-linejoin:round;stroke-miterlimit:4;stroke-opacity:1;stroke-dasharray:none;stroke-dashoffset:0;marker:none;visibility:visible;display:inline;overflow:visible;enable-background:accumulate"
         d="m 5.6153483,25.780669 c -4.181668,1.849075 -5.15448742,7.671302 -3.0048641,9.823938"
         id="path8149-9"
         
         />
      <path
         style="color:#000000;fill:none;stroke:#000000;stroke-width:0.99999994;stroke-linecap:round;stroke-linejoin:round;stroke-miterlimit:4;stroke-opacity:1;stroke-dasharray:none;stroke-dashoffset:0;marker:none;visibility:visible;display:inline;overflow:visible;enable-background:accumulate"
         d="m 9.5639313,15.880321 c -1.615633,0.381106 -2.076435,1.868272 -2.623189,3.197983"
         id="path8151-2"
         />
      <path
         style="color:#000000;fill:none;stroke:#000000;stroke-width:0.99999994;stroke-linecap:round;stroke-linejoin:round;stroke-miterlimit:4;stroke-opacity:1;stroke-dasharray:none;stroke-dashoffset:0;marker:none;visibility:visible;display:inline;overflow:visible;enable-background:accumulate"
         d="M 15.408165,-2.3300383 C 14.630972,-5.3524102 14.135386,-12.84497 11.302295,-13.979807 8.1764953,-10.443112 2.6623525,-1.079669 7.9947963,2.1243664"
         id="path8161-7"
         />
      <path
         style="color:#000000;fill:none;stroke:#000000;stroke-width:0.99999994;stroke-linecap:round;stroke-linejoin:round;stroke-miterlimit:4;stroke-opacity:1;stroke-dasharray:none;stroke-dashoffset:0;marker:none;visibility:visible;display:inline;overflow:visible;enable-background:accumulate"
         d="m 16.548682,-2.215801 c 0.620056,-3.7255746 0.312108,-7.754455 4.333973,-10.850296 1.831729,2.233642 6.549742,9.2024603 3.649664,12.1066234"
         id="path8165-9"
         />
      <path
         style="color:#000000;fill:none;stroke:#000000;stroke-width:0.99999994;stroke-linecap:round;stroke-linejoin:round;stroke-miterlimit:4;stroke-opacity:1;stroke-dasharray:none;stroke-dashoffset:0;marker:none;visibility:visible;display:inline;overflow:visible;enable-background:accumulate"
         d="m 21.566965,-2.1015636 c -0.128092,-0.7696836 -0.446222,-4.662926 -0.114042,-6.5101948 1.383984,1.9397556 3.083868,5.0186788 1.938879,6.7385749"
         id="path8167-5"
         />
      <path
         style="color:#000000;fill:none;stroke:#000000;stroke-width:0.99999994;stroke-linecap:round;stroke-linejoin:round;stroke-miterlimit:4;stroke-opacity:1;stroke-dasharray:none;stroke-dashoffset:0;marker:none;visibility:visible;display:inline;overflow:visible;enable-background:accumulate"
         d="m 10.732036,0.0684734 c -0.303466,-1.8233532 -1.3665587,-6.3586133 0.114052,-9.1370866 1.51668,1.7700073 3.243774,6.0073803 2.05294,7.9949965"
         id="path8169-4"
         />
      <path
         style="fill:none;stroke:#000000;stroke-width:0.99999994;stroke-linecap:butt;stroke-linejoin:miter;stroke-miterlimit:4;stroke-opacity:1;stroke-dasharray:none"
         d="m 29.462589,33.077768 c -0.150226,0.250887 -0.400604,1.856073 -0.400604,1.856073 1.192347,0.396805 2.327465,-0.07376 3.104715,-0.702257 l 0.851299,-2.10696"
         id="path8301-3"
         />
    </g>
    <g
       id="forest">
      <rect
         y="640.53986"
         x="122.22846"
         height="343.52945"
         width="430.86746"
         id="rect5910"
         style="color:#000000;fill:#afdde9;fill-opacity:1;fill-rule:nonzero;stroke:none;stroke-width:1;marker:none;visibility:visible;display:inline;overflow:visible;enable-background:accumulate" />
      <path
         
         id="path5904"
         d="m 499.5299,632.92513 c 3.58155,-5.39942 9.02919,-4.59304 14.58998,-3.50294 22.54133,4.41877 1.37858,39.84936 10.46084,55.37889 9.12322,15.59954 17.93383,25.48515 8.49993,44.08644 -1.66047,3.27401 -4.61146,6.24897 -5.90599,9.75029 -1.47614,3.99248 7.4664,6.18128 7.20553,12.32056 -0.34634,8.15111 -9.20228,10.34892 -12.46562,15.73644 -0.46929,0.77477 4.01025,1.64175 4.58839,2.11148 1.75457,1.42556 -0.33521,8.78829 -0.82479,9.83736 -8.36944,17.93417 -22.88565,27.90668 -27.89071,48.46683 -3.51411,14.43551 9.69068,29.87727 6.37558,31.85295 -6.8341,4.07287 -33.99169,10.79299 -40.3228,1.18555 -1.97982,-3.0044 -0.79812,-14.72429 -0.6459,-18.30671 0.69416,-16.33689 -11.02772,-32.46424 -10.30002,-49.59035 0.25226,-5.93689 3.16473,-14.33204 0.66654,-20.47343 -2.84587,-6.99613 -7.57315,-14.00399 -9.65927,-21.5886 -3.3014,-12.00304 -2.23087,-74.1809 2.0125,-85.6579"
         style="color:#000000;fill:#217844;stroke:none;stroke-width:1;marker:none;visibility:visible;display:inline;overflow:visible;enable-background:accumulate" />
      <path
         
         id="path5900"
         d="m 409.88634,785.85549 c -6.30222,-13.57744 -27.02727,-1.48693 -30.58102,9.1743 -2.89326,8.6798 6.05612,17.55675 8.56268,25.07644 0.85251,2.55748 -2.77426,13.12786 -2.44647,13.45564 6.48567,6.48567 20.68136,1.06401 26.91129,9.78592 5.44049,7.6167 -0.98198,11.73295 0.61162,16.51375 3.02851,9.08552 12.2324,11.42375 12.2324,22.62995 0,2.2291 -1.97001,9.78592 2.44648,9.78592 3.10684,0 7.68706,-1.59504 11.62079,-0.61161 2.68248,0.67061 4.43314,1.83485 7.33945,1.83485 5.04161,0 9.46842,-2.44648 9.1743,-2.44648 -2.45032,0 -3.56948,8.79998 -0.61162,9.78593 4.97933,1.65978 8.77683,-5.98372 12.84403,-7.33945 2.81874,-0.93958 5.45981,3.3863 7.33944,2.44649 4.74565,-2.37283 2.44648,-19.33163 2.44648,-23.24157 0,-11.09621 0.37458,-21.99495 1.22324,-33.0275 0.54805,-7.12467 0.44761,-0.68678 1.22324,-6.1162 0.11532,-0.8073 -0.81549,-2.44648 0,-2.44648 0.29212,0 -4.14645,5.1418 -10.39754,3.05811 -8.59321,-2.8644 -17.71221,-12.31717 -20.7951,-20.7951 -0.97665,-2.68579 -6.65708,-14.20873 -4.89295,-17.73698 1.14782,-2.29566 3.58787,-3.95397 4.28133,-6.72782 2.34002,-9.36006 -2.76268,-21.28012 -11.62078,-25.07644 -9.18326,-3.93568 -28.19354,-3.38719 -34.86236,5.50458 -0.74981,0.99977 1.51611,5.15993 1.83486,6.11621"
         style="color:#000000;fill:#44aa00;stroke:none;stroke-width:1;marker:none;visibility:visible;display:inline;overflow:visible;enable-background:accumulate" />
      <path
         
         id="path5894"
         d="m 425.94653,694.0357 c 3.7463,-14.07416 -4.35529,-24.19488 -18.36695,-27.83853 -8.29062,-2.15591 -18.1317,36.55069 -13.95888,45.85168 5.26677,11.73937 35.91532,11.28729 29.38712,29.47607 -2.36388,6.58622 -9.50241,10.5902 -13.22421,14.73803 -0.26962,0.30051 2.70652,5.12764 2.93871,5.73146 2.33084,6.06119 4.40808,10.43228 4.40808,17.19438 0,3.61776 0.0415,7.18432 -0.73468,10.64414 -0.2449,1.0917 -1.6378,2.77186 -0.73468,3.27512 3.68447,2.05313 14.15148,-9.14161 15.42824,0.81879 0.48938,3.81784 -2.92992,22.65616 0,23.74459 3.8092,1.41509 20.26305,-8.39861 21.30567,-4.91266 1.9336,6.46486 -3.33298,16.53526 0,22.10704 3.31194,5.5366 12.50387,3.7045 16.89759,9.82536 1.96683,2.73997 4.56595,11.00955 8.81614,9.82536 8.19426,-2.28308 11.75485,-25.61428 11.75485,-32.75118 0,-14.89687 -1.00088,-32.82248 -5.14274,-46.67046 -2.06524,-6.90493 -6.46871,-13.20009 -8.08147,-21.28827 -1.35604,-6.80076 -0.10504,-14.9722 -2.93871,-21.28827 -2.24322,-5.00005 -8.29734,-5.39386 -10.28549,-9.82536 -4.26146,-9.49857 4.72099,-41.06026 4.40808,-41.75777 -1.90667,-4.24984 -5.93107,-6.45015 -8.08147,-10.64413 -6.05666,-11.81249 -20.47604,-32.85701 -33.06051,-18.83194"
         style="color:#000000;fill:#165016;stroke:none;stroke-width:1;marker:none;visibility:visible;display:inline;overflow:visible;enable-background:accumulate" />
      <path
         
         id="path5882"
         d="m 218.6461,906.53838 c -4.03605,11.76268 -32.41345,-36.01526 -39.11295,-43.2301 -7.31786,-7.88077 -20.68306,-14.25212 -23.67363,-25.21756 -2.47995,-9.09316 7.67255,-17.05791 14.41004,-21.1004 0.66465,-0.3988 7.91533,-4.95077 7.71966,-5.14645 -1.11987,-1.11987 -3.33705,-0.89655 -4.6318,-1.54392 -6.35737,-3.17869 -12.2387,-7.3308 -16.98325,-12.86611 -19.54874,-22.80686 -22.28441,-68.28698 -7.71967,-94.17986 9.11697,-16.20794 29.06292,-21.10042 46.31798,-21.10042 1.52649,0 -1.71141,-19.04183 -0.51465,-19.04183 0.8703,0 17.49789,11.63886 17.49789,9.2636 0,-2.87897 -3.74276,-7.43803 -4.11714,-10.80753 -1.3555,-12.19946 2.53017,-28.04272 16.98325,-29.84936 6.07797,-0.75974 17.62127,1.80761 22.12969,-3.6025 4.27751,-5.133 0.27596,-22.84199 7.71967,-24.70292 4.75637,-1.18909 10.72985,2.29162 14.92467,3.60251 32.66061,10.20644 36.87333,38.55768 30.364,69.47695 -0.32582,1.54767 -0.64569,3.09742 -1.02928,4.6318 -7.69312,30.77249 21.27728,-32.54347 23.67362,-9.77824 1.54614,14.6883 1.05039,30.58321 0,45.28868 -0.0577,0.80841 -2.30021,20.34412 -3.60251,19.04183 -1.19436,-1.19437 18.23695,-11.74406 20.07113,-2.57322 1.2181,6.09052 -7.1909,12.48841 -11.32217,15.43932 -0.072,0.0515 -4.11716,2.98721 -4.11716,2.57322 0,-1.21303 2.38949,0.51464 3.60251,0.51464 3.86148,0 12.04925,-1.57681 10.80752,4.63181 -0.89861,4.49307 -11.32216,14.04747 -11.32216,15.95396 0,1.30323 12.8609,-2.15423 6.17573,7.20502 -1.21979,1.7077 -10.29289,9.98837 -10.29289,10.80752 0,0.36855 3.47755,-1.94611 3.60251,-2.05857 2.42767,-2.1849 21.33301,-22.03812 24.70292,-16.98326 7.53119,11.29678 -38.08367,42.1852 -38.08367,45.80333 0,1.17249 10.477,0 11.32218,0 1.05253,0 19.54805,2.32221 14.41003,6.17573 -1.40938,1.05703 -32.32102,19.91878 -25.21756,9.26359"
         style="color:#000000;fill:#165016;fill-opacity:1;fill-rule:nonzero;stroke:none;stroke-width:1;marker:none;visibility:visible;display:inline;overflow:visible;enable-background:accumulate" />
      <path
         
         id="path5888"
         d="m 259.30298,873.75729 c 2.14684,-12.22493 14.28597,-33.77267 26.94863,-38.83774 6.97461,-2.78984 10.09636,8.08173 16.64475,3.17043 10.3359,-7.75192 19.03071,-17.96847 31.70428,-22.19298 2.8749,-0.95831 6.45158,-2.02232 9.51127,-1.58521 1.43575,0.20509 7.87922,4.38275 8.71868,3.96301 10.29058,-5.14527 22.84083,-18.78248 35.66731,-16.64474 15.52272,2.58713 -3.17042,15.41027 -3.17042,18.22997 0,2.17867 4.18408,-1.2771 6.34085,-1.58523 5.66942,-0.8099 10.19976,-0.84466 15.05953,1.58523 3.86379,1.93189 -10.30388,6.60967 -10.30388,7.13346 0,2.11971 11.09649,2.04325 11.09649,4.75564 0,6.67538 -36.05786,5.48123 -41.21556,6.34085 -17.11035,2.85173 -34.85519,3.96305 -52.31206,3.96305 -15.5023,0 -2.74645,6.92147 -7.92606,9.51127 -5.54391,2.77196 -13.04451,1.67591 -19.02257,3.17043 -7.66241,1.9156 -12.39505,13.61765 -19.02257,10.30389"
         style="color:#000000;fill:#008000;stroke:none;stroke-width:1;marker:none;visibility:visible;display:inline;overflow:visible;enable-background:accumulate" />
      <path
         
         
         d="m 262.39084,914.77269 c 3.25544,-0.76826 -0.28866,3.47715 -0.51464,2.57322 -0.83487,-3.3395 4.52191,-9.44856 5.66109,-12.8661 7.75155,-23.25466 31.1435,-28.95166 51.97905,-37.05437 12.00302,-4.66785 23.5828,-10.55984 35.51044,-15.43933 14.56549,-5.9586 30.22179,-8.93257 44.77404,-14.92468 12.47566,-5.13704 25.55944,-8.16951 38.08366,-12.8661 1.40094,-0.52535 7.41436,-2.46855 4.11715,-4.11715 l -2.57322,-14.92468 c -5.23333,7.85001 -36.36985,15.71683 -46.31796,18.01255 -46.11175,10.64116 -92.55208,22.73639 -138.43926,32.93721"
         style="color:#000000;fill:#713612;fill-opacity:1;stroke:none;stroke-width:1;marker:none;visibility:visible;display:inline;overflow:visible;enable-background:accumulate"
         id="path5062" />
      <path
         
         
         d="m 279.21266,583.7912 c 0.0231,6.82175 -4.50036,131.96429 -4.96985,139.00669 -1.20774,18.11616 -4.00358,35.81957 -4.6318,54.03763 -0.79089,22.93601 1.94826,46.0245 0.51465,68.96231 -1.50794,24.12695 -2.24051,49.94659 -0.51465,74.10875 0.78866,11.04115 2.2345,21.9931 3.60251,32.93722 0.57953,4.63621 1.183,9.51751 2.05858,13.89536 0.23433,1.1717 0.45597,3.9998 1.02929,5.1465 0.17154,0.3431 0.89824,1.0293 0.51464,1.0293 -0.48521,0 -0.68619,-0.6862 -1.02929,-1.0293 l -61.75729,-15.954 c 0,-47.17649 4.38379,-100.00191 3.08787,-149.24678 -0.43746,-16.62353 -0.2214,-33.38593 -2.05858,-49.92047 -0.37632,-3.3869 -0.87107,-13.26254 -1.54393,-15.95397 -0.35792,-1.43165 -2.76402,-149.82842 -1.72053,-148.78494 z"
         style="color:#000000;fill:#611010;fill-opacity:1;stroke:none;stroke-width:1;marker:none;visibility:visible;display:inline;overflow:visible;enable-background:accumulate"
         id="path5054" />
      <path
         
         
         d="m 232.5415,822.65141 c -4.87852,-9.75703 -82.90912,-18.96136 -92.12129,-12.86611 l 11.32216,20.58576 c 14.89783,-5.52588 76.92181,17.01822 72.56481,25.73221 10.45956,24.59406 27.3662,-9.66944 8.23432,-33.45186 z"
         style="color:#000000;fill:#713612;fill-opacity:1;stroke:none;stroke-width:1;marker:none;visibility:visible;display:inline;overflow:visible;enable-background:accumulate"
         id="path5072" />
      <path
         
         id="path5082"
         d="m 265.75745,785.45112 c -1.61787,-56.29231 -29.66604,48.51133 -4.34894,52.73084 3.92295,0.65383 6.44901,-3.96933 7.61064,-7.06702 5.63106,-15.01617 -11.4258,-32.05699 -3.2617,-45.66382 z"
         style="color:#000000;fill:#923722;fill-opacity:1;stroke:none;stroke-width:1;marker:none;visibility:visible;display:inline;overflow:visible;enable-background:accumulate" />
      <path
         
         
         id="path5098"
         d="m 451.26522,995.05716 c 0,-17.0703 0.49916,-38.83416 1.54394,-57.64013 1.65457,-29.78228 -1.15757,-59.81495 -2.05858,-89.54807 -0.44689,-14.74755 -0.59551,-29.51104 -1.02929,-44.25939 -0.43605,-14.82604 6.8921,-134.27285 0.0366,-147.35961 l 33.45187,2.57322 c 2.10471,8.59867 -1.75444,116.88616 -2.09515,125.74456 -0.93761,24.37787 -2.20467,48.63198 -1.54393,73.07946 0.9135,33.7993 7.71966,67.02362 7.71966,100.87024 0,6.55222 1.79292,39.64422 0.51465,42.20086"
         style="color:#000000;fill:#611010;fill-opacity:1;stroke:none;stroke-width:1;marker:none;visibility:visible;display:inline;overflow:visible;enable-background:accumulate" />
      <path
         
         
         d="m 459.49953,880.29154 c -5.49865,-2.74932 -12.53084,-9.89783 -18.52718,-13.89539 -30.26818,-20.17878 -59.27203,-43.60109 -87.4895,-65.87444 l -28.30543,5.66108 c 8.74239,5.90417 17.93042,11.97023 26.7615,18.01254 26.69732,18.26659 51.51693,39.44455 77.71125,58.15479 7.4796,5.34257 10.60938,9.58008 16.98326,15.95396 0.0285,0.0285 11.81638,15.39845 8.74895,9.2636"
         style="color:#000000;fill:#8c4e25;fill-opacity:1;stroke:none;stroke-width:1;marker:none;visibility:visible;display:inline;overflow:visible;enable-background:accumulate"
         id="path5110" />
      <path
         
         
         id="path5892"
         d="m 303.54723,863.23513 c 0,1.02929 0,-4.11715 0,-3.08786 0,23.37321 11.41747,11.61545 21.94238,16.12613 4.64711,1.99162 4.59642,6.95211 10.80753,6.17572 5.32758,-0.66594 16.97291,-12.60637 22.25457,-9.96555 5.03822,2.51912 4.91005,-0.25047 11.3846,1.04444 4.05559,0.81112 9.45083,-3.08787 13.89539,-3.08787 18.83132,0 21.55843,4.55153 40.65689,-3.08786 1.19978,-0.47991 4.947,-1.3445 5.66108,-2.05857 0.80677,-0.80678 -0.86714,-2.60142 -1.02929,-3.08787 -0.46536,-1.39609 0.36607,-6.83894 -0.51465,-7.71966 -0.60847,-0.60848 -3.36662,0.37526 -4.11714,0 -3.28512,-1.64255 -10.30369,-7.54451 -14.41004,-6.17573 -1.07484,0.35828 -2.72891,4.24906 -3.08787,5.14645 -0.26269,0.65671 0.19267,2.05857 -0.51464,2.05857 -0.0863,0 -3.83681,-8.17824 -6.69037,-8.74895 -6.94125,-1.38825 -15.35848,4.10471 -22.1297,5.14644 -6.74064,1.03702 -10.36969,-3.24588 -16.4686,-4.11715 -4.80681,-0.68669 -5.52209,4.56229 -8.74896,6.17573 -2.18075,1.09037 -2.75875,-4.10022 -4.63179,-5.66109 -0.90809,-0.75673 -4.13794,0.31295 -5.14644,0.51464 -0.471,0.0942 -9.17075,0.93645 -9.77824,1.54394 -7.08062,7.08061 -9.05874,7.30744 -17.4979,3.08787"
         style="color:#000000;fill:#44aa00;stroke:none;stroke-width:1;marker:none;visibility:visible;display:inline;overflow:visible;enable-background:accumulate" />
    </g>
  </defs>

  <rect width="100%" height="100%" style="fill:url(#background_pattern);stroke:orange;stroke-width:4" />

  <rect x="20" y="20" width="600" height="560" style="fill:black;stroke:red;stroke-width:5" />

  <g transform="translate(640, 180)">
    <text x="70" y="-100" style="fill:orange;font-size:25px;font-weight:bold;text-anchor:middle">Health:</text>
    <rect x="0" y="-90" width="140" height="35" style="fill:white" />
    <text id="health" x="70" y="-64" style="fill:orange;font-size:25px;text-anchor:middle">0</text>
    <text x="70" y="0" style="fill:orange;font-size:25px;font-weight:bold;text-anchor:middle">Level:</text>
    <rect x="0" y="10" width="140" height="35" style="fill:white" />
    <text id="level" x="70" y="36" style="fill:orange;font-size:25px;text-anchor:middle">0</text>
    <text x="70" y="100" style="fill:orange;font-size:25px;font-weight:bold;text-anchor:middle">Score:</text>
    <rect x="0" y="110" width="140" height="35" style="fill:white" />
    <text id="score" x="70" y="136" style="fill:orange;font-size:25px;text-anchor:middle">0</text>
    <text x="70" y="200" style="fill:orange;font-size:25px;font-weight:bold;text-anchor:middle">Bullets:</text>
    <rect x="0" y="210" width="140" height="35" style="fill:white" />
    <text id="bullet_left" x="70" y="236" style="fill:orange;font-size:25px;text-anchor:middle">0</text>
    <text x="70" y="300" style="fill:orange;font-size:25px;font-weight:bold;text-anchor:middle">Remaining time:</text>
    <rect x="0" y="310" width="140" height="35" style="fill:white" />
    <text id="time_left" x="70" y="336" style="fill:orange;font-size:25px;text-anchor:middle">0</text>
  </g>
  <g style="clip-path:url(#gameareaclip)">
    <g transform="translate(20,20)">
      <g id="gamearea" transform="translate(0,0)" width="600" height="560">
        <rect x="0" y="0" width="600" height="560" style="fill:#afdde9" />
        <use xlink:href="#forest" opacity="0.3" transform="translate(0,100) scale(1.6) translate(-150,-700)"/>

        <g id="platforms">
          <rect x="0" y="540" width="560" height="20" style="fill:#8a563a"/>
          <rect id="exit" x="560" y="540" width="40" height="20" style="fill:#8a563a">
			<animate attributeName="fill"
				attributeType="CSS"
				values="#F00;#8a563a;#F00;"
				begin="0s" dur="0.5s" repeatCount="indefinite"/>
		  </rect>
			<text x="565" y="530"
				style="font-size:20px;">exit</text>
          <rect x="100" y="460" width="300" height="80" style="fill:#22b14c"/>
          <rect class="portal" x="560" y="480" width="40" height="20">
			<animate attributeName="fill"
				attributeType="CSS"
				values="#b5e61d;#22b14c;#b5e61d;"
				begin="0s" dur="0.5s" repeatCount="indefinite"/>
          </rect>
          <rect class="disappearing" x="560" y="360" width="40" height="20" style="fill:#ffc90e;" opacity="1"/>
          <rect x="400" y="300" width="60" height="100" style="fill:#22b14c"/>
          <rect x="300" y="400" width="200" height="20" style="fill:#b5e61d"/>
          <rect x="500" y="220" width="100" height="40" style="fill:#b5e61d"/>
          <rect x="40" y="300" width="260" height="20" style="fill:#b5e61d"/>
          <rect class="disappearing" x="0" y="300" width="40" height="20" style="fill:#ffc90e;" opacity="1"/>
          <rect class="disappearing" x="440" y="100" width="40" height="20" style="fill:#ffc90e" opacity="1"/>
          <rect x="480" y="100" width="40" height="20" style="fill:#22b14c"/>
          <rect id="moving" x="60" y="140" width="100" height="20" style="fill:#880015"/>
          <rect x="220" y="200" width="120" height="20" style="fill:#22b14c"/>
          <rect x="380" y="160" width="80" height="20" style="fill:#22b14c"/>
          <rect x="260" y="100" width="40" height="20" style="fill:#22b14c"/>
          <rect class="portal" x="300" y="100" width="40" height="20">
			<animate attributeName="fill"
				attributeType="CSS"
				values="#b5e61d;#22b14c;#b5e61d;"
				begin="0s" dur="0.5s" repeatCount="indefinite"/>
          </rect>
          <rect x="0" y="40" width="100" height="20" style="fill:#b5e61d"/>
          <rect x="520" y="40" width="80" height="20" style="fill:#b5e61d"/>
        </g>

        <g id="player">
			<use id="player_sym" xlink:href="#chipmunk"/>
			<text id="player_name" x="0" y="-20"
				style="font-size:14px;"></text>
        </g>
        <g id="monsters"/>
        <g id="bullets"/>
        <g id="goodthings"/>
        <use id="monster_bullet" xlink:href="#bullet"/>
      </g>
    </g>
  </g>
	<g id="startscreen" style="clip-path: url(#effect_clip)">
		<rect x="0" y="0" width="800" height="600"
			  style="stroke: none; fill:#F7A033;"/>
		<use xlink:href="#chipmunk" transform="translate(100,50) scale(10)" opacity="0.2"/>
		<use xlink:href="#chipmunk" transform="translate(100,80) scale(2.6)"/>
		<use xlink:href="#monster" transform="translate(500,20) scale(3)"/>
		<use xlink:href="#goodthing" transform="translate(300,100) scale(3)"/>
		<use xlink:href="#goodthing" transform="translate(500,300) scale(10)" opacity="0.2"/>
		<text x="50" y="100" style="font-family:sans-serif; font-size: 60px; font-weight:bold; stroke:#FFF; stroke-width:2; fill:#000; text-anchor: left">
			Chipmunk and the nuts
		</text>
		<text y="175" style="font-family:sans-serif; font-size: 32px; font-weight:bold; fill:#000; text-anchor: left">
			<tspan x="30" dy="40">Welcome! you are a chipmunk. Collect all nuts</tspan>
			<tspan x="30" dy="40"> and go to the exit. Use N to walk left, M to walk </tspan>
			<tspan x="30" dy="40"> right, and Z to jump. Watch out for the wolfs! </tspan>
			<tspan x="30" dy="40"> Press space to shoot and kill them if they block</tspan>
			<tspan x="30" dy="40"> your way. You can earn more points in zoom </tspan>
			<tspan x="30" dy="40"> mode, which is much harder!</tspan>
		</text>
		<text x="50" y="480" style="font-family:sans-serif; font-size: 20px; font-weight:bold; fill:#000; text-anchor: left">
			p.s. use 'c' to enter cheat mode.
		</text>
		<g onclick="top.prepare(false)" transform="translate(220,500)">
		  <rect x="0" y="0" width="220" height="40"
				style="fill:#492B03;stroke:#492B03;stroke-width:5" />
		  <text x="10" y="28"
				style="font-family:sans-serif; font-size: 32px; font-weight:bold; fill:#FFF; text-anchor:left;">
				Normal mode</text>
		</g>
		<g onclick="top.prepare(true)" transform="translate(480,500)">
		  <rect x="0" y="0" width="220" height="40"
				style="fill:#492B03;stroke:#492B03;stroke-width:5" />
		  <text x="10" y="28"
				style="font-family:sans-serif; font-size: 32px; font-weight:bold; fill:#FFF; text-anchor:left;">
				Zoom mode</text>
		</g>
	</g>
    <g id="highscoretable" transform="translate(40,40)" visibility="hidden">
      <rect width="520" height="480"
       style="fill:white;stroke:red;stroke-width:2"/>
      <text x="260" y="40"
       style="fill:red;font-size:30px;font-weight:bold;text-anchor:middle">
        High Score Table
      </text>
      <text id="highscoretext" y="45"
       style="font-size: 20px;font-weight:bold"/>
		<g onclick="top.start_again()" transform="translate(200,420)">
		  <rect x="0" y="0" width="220" height="40"
				style="fill:#492B03;stroke:#492B03;stroke-width:5" />
		  <text x="10" y="28"
				style="font-family:sans-serif; font-size: 32px; font-weight:bold; fill:#FFF; text-anchor:left;">
				Play again</text>
		</g>
    </g>
    <xhtml:audio id="bgmusic" src="bgmusic.wav" loop="loop" autoplay="autoplay"/>
    <xhtml:audio id="r_sound" src="r.wav" begin="indefinite"/>
    <xhtml:audio id="die_sound" src="die.wav" begin="indefinite"/>
    <xhtml:audio id="lose_sound" src="lose.wav" begin="indefinite"/>
    <xhtml:audio id="shoot_sound" src="shoot.wav" begin="indefinite"/>
    <xhtml:audio id="verygood_sound" src="verygood.wav" begin="indefinite"/>
</svg>
